<svg xmlns="http://www.w3.org/2000/svg" width="623.91" height="623.91" viewBox="0 0 623.91 623.91"><defs><style>.cls-1{fill:#e50000;}.cls-2{fill:#fff;}.cls-3{fill:#241f21;}</style></defs><title>Asset 10</title><g id="Layer_2" data-name="Layer 2"><g id="Layer_1-2" data-name="Layer 1"><path class="cls-1" d="M114.56,0S0,0,0,114.56v394.8S0,623.91,114.56,623.91h394.8s114.55,0,114.55-114.55V114.56S623.91,0,509.36,0Z"/><path d="M502.43,226.62c0-64.91,21.81-86.19,65.43-102.69V113.29H424.75v10.64c43.62,16.5,65.44,37.78,65.44,102.69V417.08L187.46,127.66c-13.83-12.77-17.55-14.37-26.6-14.37H47v10.64c25,2.67,39.91,9.58,76.09,44.7l13.83,13.29V399c0,64.9-21.81,86.19-65.44,102.67v10.65H214.59V501.67C171,485.19,149.16,463.9,149.16,399V192L491.78,515h10.65Z"/><path d="M326.14,474.85c9.93-4.15,23.2-11.17,34.22-22.63a83.94,83.94,0,0,1-.82,14.22c13.91-11.1,28.29-32.76,35.28-54.39,3.36-10.4,3.86-18.15.27-32.56-.25-1,4.08-6.5,3.94-13.19a21.13,21.13,0,0,0-1.76-7.25c16.53-5.6,22.63-7.81,34-22.09.47-.59,5.13.28,6.88-1.18a56.48,56.48,0,0,0,14.61-20.64A41.6,41.6,0,0,0,455,301.78c4.56-5,8.83-10.57,9.24-22.14-3.73-4.32-12.08-7.28-26.36-12.46-8.13-2.95-20.62-7.83-24.53-10.23,2-3.07,3.55-7.6,3.43-10-.18-3.31-3.63-8.77-5.79-13.19-1.91-6.79-3.21-11.46-5.07-14.2-2.56-3.81-5.42-5.28-10.2-8.09,5.49-26.62-2.08-33-3-51.94-13.52-1.05-27.32,18.79-30.81,21a64.36,64.36,0,0,0-9.92,8.31c-13-5.16-18.84-5.5-28.07-3.51-6.25-30.61-19.15-47.82-41-53.87-10.56,32-19.46,48.13-21.52,51.2-10.1,15-12.51,22.39-16,46.21a64.85,64.85,0,0,0-19.73,20.69c-9.06,14.76-17.16,34.73-28.92,51.14,3,26.56-3.48,39.11-4.62,64.87,12.21,41.46,40.84,68,92.08,102.54a127,127,0,0,1-.85-21.58c11.52,11.49,27.61,20.56,42.87,28.34"/><path class="cls-2" d="M365.94,195.94c4.59,2.27,10.5,5.51,15.72,8.57-1.26-3.7-2-7.39-.68-11.88a6.35,6.35,0,0,0-5.15,2.4c-1.22-12.68,3.1-10,7.62-14.93.29,9.21,3.71,9.78,5.45,24.5,3.37-16.15-1.86-23.46-2.68-33.75-7.56.25-17.08,12.91-20.28,25.09m-47.89,7.83c-3.91-35.63-18.85-58-30.06-59-5.12,14.8-20.81,43.53-18.35,76.42a30.35,30.35,0,0,1-7.27-3.21c.18,6.76-.95,13.29-2.71,17.06C245.17,244.45,237,259.34,229.85,276c13.8-16.21,26.51-29.11,40.61-32.24,1.85-2.16,4.07-5.31,4.11-9.49a10.92,10.92,0,0,0,10.06.35c-11-31-2.57-59.58,6.65-71.26,4.38,8.84,13.67,10.55,15.76,23.12-3.12-2.82-8.33-3.62-10.93-2.63,2.79,6.4,3.25,10.63-2.48,21.75a15.92,15.92,0,0,0,4.83,8.06,9.76,9.76,0,0,0-8.39,5.67,9.87,9.87,0,0,1,8.55,4.73c10.36-7.14,13.18-16.54,13.71-20.47a7.12,7.12,0,0,0,5.72.17m136.42,79.84c-2.42-3.5-14-.86-17.67,2.41a15.48,15.48,0,0,1,4.72,3.64c3.92-2,7.15-2.13,8-1.08.7.87.3,4.21-.69,7.76,2.62-2.46,6.19-8.28,5.64-12.73m-11.22,30.08c-1.26,3.17-4.89,8.75-8.08,9.65a13.71,13.71,0,0,0-3.77-4.23C427,319.5,406,330.94,383,324.88c-14-3.69-25.44-16.81-41.13-4.9,18.05.72,26,9.24,40.83,12.72,14.19,3.33,20.63,1.29,30.1.92,3.68-.15,5.74.25,6.77.8.55.29.62.8.21,1.4-2.79,4.12-22.66,16.77-39.48,13.09-12-8.46-23.86-11.51-33-11.18a28.5,28.5,0,0,0-17,6c10.12-.17,17.24,3.13,23.33,10.07-4.8.53-7.16,3-9.31,6.47,21.32,15.64,13.19,42,4.67,57.13,9.57-2,23.23-13.38,28.42-21a30.62,30.62,0,0,1,.05,10.67c4-4.32,7.2-7.76,9.28-13.81,2.14,6.63-.43,21.29-13.82,37.85A34.58,34.58,0,0,0,373,420.7c-8.92,11.64-25.16,27-43.58,33.17-14.47-5.93-36.09-19.17-57.71-37.56a83,83,0,0,0-.53,14.58c-39.14-31-44.18-42.57-52-66.6,13.8,18.6,28.09,27.8,46.9,39.91a48.13,48.13,0,0,1,.91-10.76c14.57,11,32.59,19.71,48.85,23.7-23-17.48-40.76-34.47-51.39-52.56A53.38,53.38,0,0,0,262.28,376c-5.38-5.15-12.76-14-15.45-23.7-1.66,2-2.53,4-3.6,7.6-8.74-15.19-6.19-27.9,1.11-38.16,2,12.85,6.56,18.94,13.78,26.45a24.24,24.24,0,0,1,2.09-9.23c8.71,8.74,19.71,14.87,28.47,16.69a35.33,35.33,0,0,0,21.19-1.82c-17.49-6.9-31.65-16.18-43.87-43.81,5.36,3.39,14.4,5.35,21,5.68-8.63-7.27-17.52-15-21.35-24.68,0,0,7.45-1.26,10.84-4.13a16.39,16.39,0,0,1-3.64-5.29c17.38-6.24,21.39-14.8,26.74-18.31,2.55-1.69,14.41-1.58,18.48,1.63s8.41,12.56,12.9,14.93,18.45,1.25,23.65-7.85c-3.33,1-10.76.67-13.25-.63-6.41-3.35-10.22-11.2-22.21-15.55a17.57,17.57,0,0,1,6.05-5.22,21.17,21.17,0,0,1-8.63-5.43C329.2,237,329,227.47,342.37,229a14.29,14.29,0,0,0-5.43-8.79c6.09-6,6-15.93,16.77-15.81,9.79.12,20.67,13.25,29,32.06-.86-12.43-2-17.82-5.52-25.44,8.42,6.73,12.28,11.75,15.75,26.36.73-10.39.9-14,2.47-15.94a7.22,7.22,0,0,1,4.5,4.69c.9,2.07,2,6,3.62,11.5,3.24,5.09,4.46,8.08,4.46,9.34a7.69,7.69,0,0,1-1.59,4.47,8.44,8.44,0,0,0-2.32-3c-1.77,1.6-2,5.4-5.22,4.37a6.25,6.25,0,0,1-3.16-1.87c.59,4.9,2.12,6.64,5,8.61,9.37,6.39,21.85,10.35,36.8,16.15-4.92.07-10.16,1.36-12.65,3.82-2.91,2.88-6,9.82-4.95,12.37,1.19,3,7.73,4.83,10.91,12.23.93,2.18,3.85,4.6,6.59,5.79a26.74,26.74,0,0,0,7.29-2.59c.23,1.92-.7,4.48-1.46,6.37"/><path class="cls-3" d="M356,255.65a10.89,10.89,0,0,1-6.42-5.69,10.14,10.14,0,0,1,7.17-2.35c2.59,1.46,4.31,3.85,6.91,5.86-2.09,2.12-6.48,2.53-7.66,2.18m26.95,2.51a6.2,6.2,0,0,1-3.27-1.89,6.9,6.9,0,0,0,2.47-5.38c-1.86.74-6.07.55-8.15-.27-5-2-9.71-13-19.63-15.3a9.37,9.37,0,0,1,.92,4.58c-7.85-3-16.51,2.93-22.56,8.39C338.6,249.84,347,260.8,352,261.82c5.9,1.21,12.61-.58,14.43-2.21,5.09,1.46,10.79,6.19,14.48,13.38,4-6.19,4.58-12.34,2-14.83"/></g></g></svg>